<svg xmlns="http://www.w3.org/2000/svg" x="0px" y="0px" width="100" height="100"
    viewBox="0 0 100 100">
    <polygon fill="#FFF8E1" points="23.333,70.752 16.666,66.904 16.666,74.604 23.333,78.451"></polygon>
    <polygon fill="#FFEBB2" points="16.666,66.904 16.666,74.604 23.333,78.451"></polygon>
    <path fill="#FFC00E"
        d="M10,55.357v23.094l20.001,11.551V66.904L10,55.357z M23.333,78.451l-6.667-3.848v-7.699l6.667,3.848V78.451z"></path>
    <polygon fill="#FCEAED" points="56.872,21.665 49.999,17.696 43.124,21.665 49.999,25.634"></polygon>
    <polygon fill="#F9CCD2" points="49.999,17.696 43.124,21.665 49.999,25.634"></polygon>
    <path fill="#E53A34"
        d="M49.999,9.998L29.794,21.665l20.205,11.667l20.206-11.667L49.999,9.998z M43.124,21.665l6.875-3.969	l6.873,3.969l-6.873,3.969L43.124,21.665z"></path>
    <polygon fill="#88D3E1"
        points="29.794,29.364 16.666,36.942 16.666,51.51 23.333,55.357 23.333,40.79 36.458,33.212"></polygon>
    <polygon fill="#F1F7E9" points="83.334,66.904 76.667,70.752 76.667,78.451 83.334,74.604"></polygon>
    <polygon fill="#DBEBC7" points="83.334,66.904 76.667,70.752 76.667,78.451"></polygon>
    <path fill="#7CB342"
        d="M70,66.904v23.098l20-11.551V55.357L70,66.904z M83.334,74.604l-6.667,3.848v-7.699l6.667-3.848V74.604z"></path>
    <polygon fill="#88D3E1"
        points="70.208,29.364 83.334,36.942 83.334,51.51 76.667,55.357 76.667,40.79 63.542,33.212"></polygon>
    <polygon fill="#00ABC0" points="23.333,50.74 16.666,46.892 16.666,51.51 23.333,55.357"></polygon>
    <polygon fill="#00ABC0" points="67.542,35.521 63.542,33.212 70.208,29.364 74.209,31.674"></polygon>
    <polygon fill="#00ABC0" points="76.667,50.74 83.333,46.892 83.333,51.51 76.667,55.357"></polygon>
    <polygon fill="#00ABC0" points="32.458,35.521 36.458,33.212 29.792,29.364 25.792,31.674"></polygon>
</svg>